<svg xmlns="http://www.w3.org/2000/svg" xmlns:xlink="http://www.w3.org/1999/xlink" viewBox="0 0 23.91 23.91"><defs><style>.cls-1{fill:url(#Безымянный_градиент_7);}.cls-2{fill:url(#Безымянный_градиент_7-2);}.cls-3{fill:url(#Безымянный_градиент_7-3);}</style><linearGradient id="Безымянный_градиент_7" x1="5.76" y1="16.19" x2="15.91" y2="9.25" gradientUnits="userSpaceOnUse"><stop offset="0" stop-color="#c471f5"/><stop offset="1" stop-color="#fa71cd"/></linearGradient><linearGradient id="Безымянный_градиент_7-2" x1="5.86" y1="16.27" x2="16.02" y2="9.33" gradientTransform="translate(-0.16 -0.16)" xlink:href="#Безымянный_градиент_7"/><linearGradient id="Безымянный_градиент_7-3" x1="25.37" y1="19.75" x2="1.59" y2="5.94" xlink:href="#Безымянный_градиент_7"/></defs><title>m</title><g id="Слой_2" data-name="Слой 2"><g id="Layer_1" data-name="Layer 1"><rect class="cls-1" x="2.74" y="11.3" width="18.44" height="1.31" rx="0.66" ry="0.66"/><rect class="cls-2" x="2.58" y="11.3" width="18.44" height="1.31" rx="0.66" ry="0.66" transform="translate(23.75 0.16) rotate(90)"/><path class="cls-3" d="M19.91,1a3,3,0,0,1,3,3V19.91a3,3,0,0,1-3,3H4a3,3,0,0,1-3-3V4A3,3,0,0,1,4,1H19.91m0-1H4A4,4,0,0,0,0,4V19.91a4,4,0,0,0,4,4H19.91a4,4,0,0,0,4-4V4a4,4,0,0,0-4-4Z"/></g></g></svg>
