<svg xmlns="http://www.w3.org/2000/svg" xmlns:xlink="http://www.w3.org/1999/xlink" viewBox="0 0 22.42 24"><defs><style>.cls-1{fill:url(#Безымянный_градиент_7);}.cls-2{fill:url(#Безымянный_градиент_7-2);}.cls-3{fill:url(#Безымянный_градиент_7-3);}</style><linearGradient id="Безымянный_градиент_7" x1="2.81" y1="15.88" x2="13.69" y2="4.51" gradientUnits="userSpaceOnUse"><stop offset="0" stop-color="#c471f5"/><stop offset="1" stop-color="#fa71cd"/></linearGradient><linearGradient id="Безымянный_градиент_7-2" x1="10.95" y1="23.66" x2="21.82" y2="12.28" xlink:href="#Безымянный_градиент_7"/><linearGradient id="Безымянный_градиент_7-3" x1="5.76" y1="18.7" x2="16.63" y2="7.32" xlink:href="#Безымянный_градиент_7"/></defs><title>m</title><g id="Слой_2" data-name="Слой 2"><g id="Layer_1" data-name="Layer 1"><path class="cls-1" d="M22,4.94H19.13c1.09-1.09,1.53-2.33,1.06-3.4A3,3,0,0,0,17.26,0,8.31,8.31,0,0,0,14,.74a8.25,8.25,0,0,0-2.81,2A8.26,8.26,0,0,0,8.4.74,8.35,8.35,0,0,0,5.16,0,3,3,0,0,0,2.23,1.53c-.47,1.07,0,2.32,1.06,3.4H.42A.42.42,0,0,0,0,5.35v5a.42.42,0,0,0,.42.41h10V4.94H12v5.85H22a.42.42,0,0,0,.42-.41v-5A.41.41,0,0,0,22,4.94ZM9.07,4.86a5.87,5.87,0,0,1-2.24-.53A4.63,4.63,0,0,1,4.57,2.56a2,2,0,0,1,.59-.07A5.88,5.88,0,0,1,7.4,3,4.65,4.65,0,0,1,9.67,4.79,2,2,0,0,1,9.07,4.86Zm6.51-.54a5.9,5.9,0,0,1-2.24.53,1.94,1.94,0,0,1-.59-.07A4.6,4.6,0,0,1,15,3a5.89,5.89,0,0,1,2.24-.54,2,2,0,0,1,.59.07A4.63,4.63,0,0,1,15.59,4.32Z"/><path class="cls-2" d="M12,12.4V24h8.13a.41.41,0,0,0,.41-.42V12.4Z"/><path class="cls-3" d="M1.86,12.4V23.58a.41.41,0,0,0,.41.42H10.6V12.4Z"/></g></g></svg>
